<svg xmlns="http://www.w3.org/2000/svg" width="34" height="34" viewBox="0 0 34 34"><defs><style>.a{fill:#005de9;}</style></defs><g transform="translate(0 0)"><path class="a" d="M20.421,1.76a11.662,11.662,0,0,1,4.584.931,11.951,11.951,0,0,1,6.3,6.3,11.662,11.662,0,0,1,.931,4.584v6.842a11.662,11.662,0,0,1-.931,4.584,11.951,11.951,0,0,1-6.3,6.3,11.661,11.661,0,0,1-4.584.931H13.579a11.662,11.662,0,0,1-4.584-.931,11.951,11.951,0,0,1-6.3-6.3,11.661,11.661,0,0,1-.931-4.584V13.579a11.662,11.662,0,0,1,.931-4.584,11.951,11.951,0,0,1,6.3-6.3,11.661,11.661,0,0,1,4.584-.931h6.842m0-1.76H13.579A13.619,13.619,0,0,0,0,13.579v6.842A13.619,13.619,0,0,0,13.579,34h6.842A13.619,13.619,0,0,0,34,20.421V13.579A13.619,13.619,0,0,0,20.421,0Z" transform="translate(0 0)"/><path class="a" d="M303.986,451.722c-3.836,0-6.956-3.47-6.956-7.736a.706.706,0,0,1,1.412,0c0,3.487,2.487,6.324,5.544,6.324s5.544-2.837,5.544-6.324a.706.706,0,1,1,1.412,0C310.943,448.252,307.822,451.722,303.986,451.722Z" transform="translate(-287.168 -428.562)"/><path class="a" d="M485.986,671.621a.706.706,0,0,1-.706-.706v-3.3a.706.706,0,1,1,1.412,0v3.3A.706.706,0,0,1,485.986,671.621Z" transform="translate(-469.167 -644.766)"/><path class="a" d="M360.2,223.781h-8.947a.706.706,0,0,1,0-1.412H360.2a.706.706,0,1,1,0,1.412Zm-4.473-6.209a3.694,3.694,0,0,1-3.69-3.69v-6.5a3.69,3.69,0,1,1,7.38,0v6.5A3.694,3.694,0,0,1,355.729,217.572Z" transform="translate(-338.911 -196.927)"/></g></svg>